# xmcd
# 
# Track frame offsets:
#     150
#     14250
#     36622
#     57172
#     65438
#     78044
#     95978
#     113105
#     131395
#     154342
#     164462
# 
# Disc length: 2423
# 
# Revision: 0
# Processed by: cddbd v1.5.2PL0 Copyright (c) Steve Scherf et al.
# Submitted via: fre:ac v1.1beta1pre5
# 
DISCID=9009750b
DTITLE=ΛΟΥΔΟΒΙΚΟΣ ΤΩΝ ΑΝΩΓΕΙΩΝ - ΠΥΛΗ ΤΗΣ ΑΜΜΟΥ
DYEAR=1997
DGENRE=GREK
TTITLE0=ΙΟΥΛΙΟΣ ΚΙ Ο ΑΝΕΜΟΣ
TTITLE1=ΚΟΥΡΑΣΜΕΝΗ ΝΕΡΑΙΔΑ
TTITLE2=ΜΑΝΑ
TTITLE3=ΑΝΟΙΧΤΟ ΠΑΡΑΘΥΡΟ
TTITLE4=ΤΟ ΓΡΑΜΜΑ ΤΟΥ ΝΑΥΤΗ
TTITLE5=ΤΟ ΑΡΩΜΑ
TTITLE6=ΠΥΛΗ ΤΗΣ ΑΜΜΟΥ
TTITLE7=ΣΑΛΩΜΗ
TTITLE8=ΔΩΔΕΚΑ ΤΑ ΟΧΙ
TTITLE9=ΤΟ ΞΕΡΩ ΠΩΣ ΥΠΑΡΧΕΙΣ
TTITLE10=ΤΟ ΝΕΛΟ
EXTD=
EXTT0=
EXTT1=
EXTT2=
EXTT3=
EXTT4=
EXTT5=
EXTT6=
EXTT7=
EXTT8=
EXTT9=
EXTT10=
PLAYORDER=
